<?xml version="1.0" encoding="iso-8859-1"?>
<!-- Generator: Adobe Illustrator 16.0.0, SVG Export Plug-In . SVG Version: 6.00 Build 0)  -->
<!DOCTYPE svg PUBLIC "-//W3C//DTD SVG 1.1//EN" "http://www.w3.org/Graphics/SVG/1.1/DTD/svg11.dtd">
<svg version="1.1" xmlns="http://www.w3.org/2000/svg" xmlns:xlink="http://www.w3.org/1999/xlink" x="0px" y="0px"
	 width="1320.001px" height="1249px" viewBox="0 0 1320.001 1249" style="enable-background:new 0 0 1320.001 1249;"
	 xml:space="preserve">
<g id="esterno">
	<path style="opacity:0.2;fill:#FFFFFF;stroke:#000000;stroke-miterlimit:10;" d="M520.376,577.25l264.375-0.875l0.25-57.375
		c0,0,80.5-77,73-180.5l-0.97-96.499l-87.535-1.875l-0.078-30.875L725.335,209l0.166-182.5h185.5v-26h120.5V141h22v289.5h51.5v92h50
		v99h-297.5l-1.5,51.5c0,0,75,7,127,134.5h97.5l-1.5-84l31-2l1.5-41h182V862h26v123h-139l-0.5,21.5h-200.5h-89.5l-0.5,51h-90
		l-1.5,51h-101.5v-300l101,2.5l0.5,51l130,1.5c0,0,10-120-128-155.5l-2-35.5l-273.5-1.5l-4,72.5c0,0-61,57-58,164l-0.107,100
		l87.107,0.5l0.5,32l42,0.5l0.5,181.5h-183.5v26.5h-123.5V1110l-19.5-0.5V911l141-3c0,0-10.5-97,55.5-181.5l-0.5-146.5
		c0,0-108.688-52.188-126.188-139.688l-95.313-0.813l0.125,88.25l-33.563-0.125l-0.125,41.875H26.001v-183l-25.172-0.063
		L0.501,263.5l139.5,0.5l0.125-22.625l290.813,0.813l0.063-49.688l88.313-0.188l0.125-51.375l100.063,0.563l1.5,297h-99l0.5-51.5
		l-130,1.5c0,0-18.049,115.335,128.125,154L520.376,577.25z"/>
</g>
<g id="Layer_1">
</g>
</svg>
