<?xml version="1.0" encoding="iso-8859-1"?>
<!-- Generator: Adobe Illustrator 16.0.3, SVG Export Plug-In . SVG Version: 6.00 Build 0)  -->
<!DOCTYPE svg PUBLIC "-//W3C//DTD SVG 1.1//EN" "http://www.w3.org/Graphics/SVG/1.1/DTD/svg11.dtd">
<svg version="1.1" xmlns="http://www.w3.org/2000/svg" xmlns:xlink="http://www.w3.org/1999/xlink" x="0px" y="0px"
	 width="1269.332px" height="1196.5px" viewBox="0 0 1269.332 1196.5" style="enable-background:new 0 0 1269.332 1196.5;"
	 xml:space="preserve">
<g id="finestre">
	<line style="fill:none;stroke:#000000;stroke-miterlimit:10;" x1="1158.666" y1="959.166" x2="1217.166" y2="958.999"/>
	<line style="fill:none;stroke:#000000;stroke-miterlimit:10;" x1="1268.166" y1="822.666" x2="1268.166" y2="764.333"/>
	<line style="fill:none;stroke:#000000;stroke-miterlimit:10;" x1="1268.832" y1="745.832" x2="1268.166" y2="689.166"/>
	<line style="fill:none;stroke:#000000;stroke-miterlimit:10;" x1="878.334" y1="980.332" x2="939.834" y2="980.666"/>
	<line style="fill:none;stroke:#000000;stroke-miterlimit:10;" x1="473.5" y1="1195.833" x2="533.333" y2="1195.667"/>
	<line style="fill:none;stroke:#000000;stroke-miterlimit:10;" x1="455.833" y1="1195.833" x2="396" y2="1196"/>
	<line style="fill:none;stroke:#000000;stroke-miterlimit:10;" x1="260.333" y1="1145.333" x2="261" y2="1085.333"/>
	<line style="fill:none;stroke:#000000;stroke-miterlimit:10;" x1="240.5" y1="1058.667" x2="240.5" y2="1012.5"/>
	<line style="fill:none;stroke:#000000;stroke-miterlimit:10;" x1="240.667" y1="962.167" x2="240.833" y2="902"/>
	<line style="fill:none;stroke:#000000;stroke-miterlimit:10;" x1="0.667" y1="510.167" x2="0.667" y2="451.834"/>
	<line style="fill:none;stroke:#000000;stroke-miterlimit:10;" x1="0.667" y1="430.834" x2="0.5" y2="375.167"/>
	<line style="fill:none;stroke:#000000;stroke-miterlimit:10;" x1="51.333" y1="238.334" x2="109.667" y2="238.334"/>
	<line style="fill:none;stroke:#000000;stroke-miterlimit:10;" x1="235.667" y1="216.333" x2="293.667" y2="216.167"/>
	<line style="fill:none;stroke:#000000;stroke-miterlimit:10;" x1="144.5" y1="215.833" x2="197" y2="215.667"/>
	<line style="fill:none;stroke:#000000;stroke-miterlimit:10;" x1="325.5" y1="216.167" x2="377.5" y2="216.333"/>
	<line style="fill:none;stroke:#000000;stroke-miterlimit:10;" x1="594.333" y1="168.833" x2="594" y2="132"/>
	<line style="fill:none;stroke:#000000;stroke-miterlimit:10;" x1="434.167" y1="166.667" x2="461.833" y2="166.667"/>
	<line style="fill:none;stroke:#000000;stroke-miterlimit:10;" x1="700.5" y1="66.167" x2="700.666" y2="24.5"/>
	<line style="fill:none;stroke:#000000;stroke-miterlimit:10;" x1="737.834" y1="0.5" x2="784.834" y2="1"/>
	<line style="fill:none;stroke:#000000;stroke-miterlimit:10;" x1="817" y1="0.834" x2="866" y2="1"/>
</g>
<g id="Layer_1">
</g>
</svg>
