<?xml version="1.0" encoding="UTF-8" standalone="no"?>
<svg
   xmlns:dc="http://purl.org/dc/elements/1.1/"
   xmlns:cc="http://creativecommons.org/ns#"
   xmlns:rdf="http://www.w3.org/1999/02/22-rdf-syntax-ns#"
   xmlns:svg="http://www.w3.org/2000/svg"
   xmlns="http://www.w3.org/2000/svg"
   id="svg2"
   xml:space="preserve"
   style="enable-background:new 0 0 765 1044;"
   viewBox="0 0 765 1044"
   height="1044px"
   width="765px"
   y="0px"
   x="0px"
   version="1.1"><g
     id="floor"><line
       id="line5"
       y2="108"
       x2="189"
       y1="108"
       x1="108"
       style="fill:none;stroke:#FF0000;stroke-miterlimit:10;" /><line
       id="line7"
       y2="63"
       x2="189"
       y1="108"
       x1="189"
       style="fill:none;stroke:#FF0000;stroke-miterlimit:10;" /><line
       id="line9"
       y2="63"
       x2="450"
       y1="63"
       x1="189"
       style="fill:none;stroke:#FF0000;stroke-miterlimit:10;" /><line
       id="line11"
       y2="36"
       x2="450"
       y1="63"
       x1="450"
       style="fill:none;stroke:#FF0000;stroke-miterlimit:10;" /><line
       id="line13"
       y2="36"
       x2="477"
       y1="36"
       x1="450"
       style="fill:none;stroke:#FF0000;stroke-miterlimit:10;" /><line
       id="line15"
       y2="9"
       x2="477"
       y1="36"
       x1="477"
       style="fill:none;stroke:#FF0000;stroke-miterlimit:10;" /><line
       id="line17"
       y2="9"
       x2="558"
       y1="9"
       x1="477"
       style="fill:none;stroke:#FF0000;stroke-miterlimit:10;" /><line
       id="line19"
       y2="162"
       x2="558"
       y1="9"
       x1="558"
       style="fill:none;stroke:#FF0000;stroke-miterlimit:10;" /><line
       id="line21"
       y2="162"
       x2="675"
       y1="162"
       x1="558"
       style="fill:none;stroke:#FF0000;stroke-miterlimit:10;" /><line
       id="line23"
       y2="225"
       x2="675"
       y1="162"
       x1="675"
       style="fill:none;stroke:#FF0000;stroke-miterlimit:10;" /><line
       id="line25"
       y2="225"
       x2="720"
       y1="225"
       x1="675"
       style="fill:none;stroke:#FF0000;stroke-miterlimit:10;" /><line
       id="line27"
       y2="333"
       x2="720"
       y1="225"
       x1="720"
       style="fill:none;stroke:#FF0000;stroke-miterlimit:10;" /><line
       id="line29"
       y2="333"
       x2="756"
       y1="333"
       x1="720"
       style="fill:none;stroke:#FF0000;stroke-miterlimit:10;" /><line
       id="line31"
       y2="432"
       x2="756"
       y1="333"
       x1="756"
       style="fill:none;stroke:#FF0000;stroke-miterlimit:10;" /><line
       id="line33"
       y2="432"
       x2="477"
       y1="432"
       x1="756"
       style="fill:none;stroke:#FF0000;stroke-miterlimit:10;" /><line
       id="line35"
       y2="522"
       x2="477"
       y1="432"
       x1="477"
       style="fill:none;stroke:#FF0000;stroke-miterlimit:10;" /><line
       id="line37"
       y2="432"
       x2="378"
       y1="522"
       x1="378"
       style="fill:none;stroke:#FF0000;stroke-miterlimit:10;" /><line
       id="line39"
       y2="207"
       x2="108"
       y1="108"
       x1="108"
       style="fill:none;stroke:#FF0000;stroke-miterlimit:10;" /><line
       id="line41"
       y2="207"
       x2="36"
       y1="207"
       x1="108"
       style="fill:none;stroke:#FF0000;stroke-miterlimit:10;" /><line
       id="line43"
       y2="342"
       x2="36"
       y1="207"
       x1="36"
       style="fill:none;stroke:#FF0000;stroke-miterlimit:10;" /><line
       id="line45"
       y2="342"
       x2="207"
       y1="342"
       x1="36"
       style="fill:none;stroke:#FF0000;stroke-miterlimit:10;" /><line
       id="line47"
       y2="351"
       x2="207"
       y1="342"
       x1="207"
       style="fill:none;stroke:#FF0000;stroke-miterlimit:10;" /><line
       id="line49"
       y2="351"
       x2="360"
       y1="351"
       x1="207"
       style="fill:none;stroke:#FF0000;stroke-miterlimit:10;" /><line
       id="line51"
       y2="387"
       x2="360"
       y1="351"
       x1="360"
       style="fill:none;stroke:#FF0000;stroke-miterlimit:10;" /><line
       id="line53"
       y2="387"
       x2="378"
       y1="387"
       x1="360"
       style="fill:none;stroke:#FF0000;stroke-miterlimit:10;" /><line
       id="line55"
       y2="432"
       x2="378"
       y1="387"
       x1="378"
       style="fill:none;stroke:#FF0000;stroke-miterlimit:10;" /><line
       id="line57"
       y2="936"
       x2="189"
       y1="936"
       x1="108"
       style="fill:none;stroke:#FF0000;stroke-miterlimit:10;" /><line
       id="line59"
       y2="981"
       x2="189"
       y1="936"
       x1="189"
       style="fill:none;stroke:#FF0000;stroke-miterlimit:10;" /><line
       id="line61"
       y2="981"
       x2="450"
       y1="981"
       x1="189"
       style="fill:none;stroke:#FF0000;stroke-miterlimit:10;" /><line
       id="line63"
       y2="1008"
       x2="450"
       y1="981"
       x1="450"
       style="fill:none;stroke:#FF0000;stroke-miterlimit:10;" /><line
       id="line65"
       y2="1008"
       x2="477"
       y1="1008"
       x1="450"
       style="fill:none;stroke:#FF0000;stroke-miterlimit:10;" /><line
       id="line67"
       y2="1035"
       x2="477"
       y1="1008"
       x1="477"
       style="fill:none;stroke:#FF0000;stroke-miterlimit:10;" /><line
       id="line69"
       y2="1035"
       x2="558"
       y1="1035"
       x1="477"
       style="fill:none;stroke:#FF0000;stroke-miterlimit:10;" /><line
       id="line71"
       y2="882"
       x2="558"
       y1="1035"
       x1="558"
       style="fill:none;stroke:#FF0000;stroke-miterlimit:10;" /><line
       id="line73"
       y2="882"
       x2="675"
       y1="882"
       x1="558"
       style="fill:none;stroke:#FF0000;stroke-miterlimit:10;" /><line
       id="line75"
       y2="819"
       x2="675"
       y1="882"
       x1="675"
       style="fill:none;stroke:#FF0000;stroke-miterlimit:10;" /><line
       id="line77"
       y2="819"
       x2="720"
       y1="819"
       x1="675"
       style="fill:none;stroke:#FF0000;stroke-miterlimit:10;" /><line
       id="line79"
       y2="711"
       x2="720"
       y1="819"
       x1="720"
       style="fill:none;stroke:#FF0000;stroke-miterlimit:10;" /><line
       id="line81"
       y2="711"
       x2="756"
       y1="711"
       x1="720"
       style="fill:none;stroke:#FF0000;stroke-miterlimit:10;" /><line
       id="line83"
       y2="612"
       x2="756"
       y1="711"
       x1="756"
       style="fill:none;stroke:#FF0000;stroke-miterlimit:10;" /><line
       id="line85"
       y2="612"
       x2="477"
       y1="612"
       x1="756"
       style="fill:none;stroke:#FF0000;stroke-miterlimit:10;" /><line
       id="line87"
       y2="522"
       x2="477"
       y1="612"
       x1="477"
       style="fill:none;stroke:#FF0000;stroke-miterlimit:10;" /><line
       id="line89"
       y2="612"
       x2="378"
       y1="522"
       x1="378"
       style="fill:none;stroke:#FF0000;stroke-miterlimit:10;" /><line
       id="line91"
       y2="837"
       x2="108"
       y1="936"
       x1="108"
       style="fill:none;stroke:#FF0000;stroke-miterlimit:10;" /><line
       id="line93"
       y2="837"
       x2="36"
       y1="837"
       x1="108"
       style="fill:none;stroke:#FF0000;stroke-miterlimit:10;" /><line
       id="line95"
       y2="702"
       x2="36"
       y1="837"
       x1="36"
       style="fill:none;stroke:#FF0000;stroke-miterlimit:10;" /><line
       id="line97"
       y2="702"
       x2="207"
       y1="702"
       x1="36"
       style="fill:none;stroke:#FF0000;stroke-miterlimit:10;" /><line
       id="line99"
       y2="693"
       x2="207"
       y1="702"
       x1="207"
       style="fill:none;stroke:#FF0000;stroke-miterlimit:10;" /><line
       id="line101"
       y2="693"
       x2="360"
       y1="693"
       x1="207"
       style="fill:none;stroke:#FF0000;stroke-miterlimit:10;" /><line
       id="line103"
       y2="657"
       x2="360"
       y1="693"
       x1="360"
       style="fill:none;stroke:#FF0000;stroke-miterlimit:10;" /><line
       id="line105"
       y2="657"
       x2="378"
       y1="657"
       x1="360"
       style="fill:none;stroke:#FF0000;stroke-miterlimit:10;" /><line
       id="line107"
       y2="612"
       x2="378"
       y1="657"
       x1="378"
       style="fill:none;stroke:#FF0000;stroke-miterlimit:10;" /></g><g
     id="Layer_1" /></svg>