<?xml version="1.0" encoding="iso-8859-1"?>
<!-- Generator: Adobe Illustrator 16.0.3, SVG Export Plug-In . SVG Version: 6.00 Build 0)  -->
<!DOCTYPE svg PUBLIC "-//W3C//DTD SVG 1.1//EN" "http://www.w3.org/Graphics/SVG/1.1/DTD/svg11.dtd">
<svg version="1.1" xmlns="http://www.w3.org/2000/svg" xmlns:xlink="http://www.w3.org/1999/xlink" x="0px" y="0px"
	 width="1290.922px" height="1192.004px" viewBox="0 0 1290.922 1192.004" style="enable-background:new 0 0 1290.922 1192.004;"
	 xml:space="preserve">
<g id="interno">
	<line style="fill:none;stroke:#000000;stroke-miterlimit:10;" x1="819" y1="112.004" x2="819" y2="4.004"/>
	<line style="fill:none;stroke:#000000;stroke-miterlimit:10;" x1="908" y1="0.004" x2="909" y2="112.004"/>
	<line style="fill:none;stroke:#000000;stroke-miterlimit:10;" x1="909" y1="112.004" x2="819" y2="112.004"/>
	<line style="fill:none;stroke:#000000;stroke-miterlimit:10;" x1="909" y1="112.004" x2="1026" y2="112.004"/>
	<line style="fill:none;stroke:#000000;stroke-miterlimit:10;" x1="720" y1="94.004" x2="765" y2="94.004"/>
	<line style="fill:none;stroke:#000000;stroke-miterlimit:10;" x1="765" y1="184.004" x2="765" y2="139.004"/>
	<line style="fill:none;stroke:#000000;stroke-miterlimit:10;" x1="765" y1="166.004" x2="819" y2="166.004"/>
	<line style="fill:none;stroke:#000000;stroke-miterlimit:10;" x1="819" y1="166.004" x2="819" y2="103.004"/>
	<line style="fill:none;stroke:#000000;stroke-miterlimit:10;" x1="854.03" y1="215.505" x2="855" y2="175.004"/>
	<line style="fill:none;stroke:#000000;stroke-miterlimit:10;" x1="1053" y1="211.004" x2="945" y2="211.004"/>
	<line style="fill:none;stroke:#000000;stroke-miterlimit:10;" x1="855" y1="310.004" x2="1053" y2="310.004"/>
	<line style="fill:none;stroke:#000000;stroke-miterlimit:10;" x1="909" y1="310.004" x2="909" y2="499.004"/>
	<line style="fill:none;stroke:#000000;stroke-miterlimit:10;" x1="909" y1="499.004" x2="855" y2="499.004"/>
	<line style="fill:none;stroke:#000000;stroke-miterlimit:10;" x1="855" y1="499.004" x2="854.5" y2="595.004"/>
	<line style="fill:none;stroke:#000000;stroke-miterlimit:10;" x1="954" y1="490.004" x2="954" y2="589.004"/>
	<line style="fill:none;stroke:#000000;stroke-miterlimit:10;" x1="1102" y1="496.004" x2="999" y2="499.004"/>
	<line style="fill:none;stroke:#000000;stroke-miterlimit:10;" x1="999" y1="526.004" x2="999" y2="589.004"/>
	<line style="fill:none;stroke:#000000;stroke-miterlimit:10;" x1="999" y1="526.004" x2="1017" y2="526.004"/>
	<line style="fill:none;stroke:#000000;stroke-miterlimit:10;" x1="954" y1="526.004" x2="1008" y2="526.004"/>
	<line style="fill:none;stroke:#000000;stroke-miterlimit:10;" x1="1053" y1="526.004" x2="1053" y2="589.004"/>
	<line style="fill:none;stroke:#000000;stroke-miterlimit:10;" x1="1017" y1="526.004" x2="1053" y2="526.004"/>
	<line style="fill:none;stroke:#000000;stroke-miterlimit:10;" x1="999" y1="400.004" x2="1053" y2="400.004"/>
	<line style="fill:none;stroke:#000000;stroke-miterlimit:10;" x1="999" y1="400.004" x2="999" y2="499.004"/>
	<line style="fill:none;stroke:#000000;stroke-miterlimit:10;" x1="1188" y1="697.004" x2="1188" y2="652.004"/>
	<line style="fill:none;stroke:#000000;stroke-miterlimit:10;" x1="1188" y1="697.004" x2="1098" y2="697.004"/>
	<line style="fill:none;stroke:#000000;stroke-miterlimit:10;" x1="1116" y1="751.004" x2="1116" y2="697.004"/>
	<line style="fill:none;stroke:#000000;stroke-miterlimit:10;" x1="1116" y1="751.004" x2="1080" y2="751.004"/>
	<line style="fill:none;stroke:#000000;stroke-miterlimit:10;" x1="1116" y1="751.004" x2="1287" y2="751.004"/>
	<line style="fill:none;stroke:#000000;stroke-miterlimit:10;" x1="1179" y1="751.004" x2="1179" y2="841.004"/>
	<line style="fill:none;stroke:#000000;stroke-miterlimit:10;" x1="1179" y1="841.004" x2="1287" y2="841.004"/>
	<line style="fill:none;stroke:#000000;stroke-miterlimit:10;" x1="1287" y1="841.004" x2="1290.5" y2="835.504"/>
	<line style="fill:none;stroke:#000000;stroke-miterlimit:10;" x1="1179" y1="841.004" x2="1179" y2="958.004"/>
	<line style="fill:none;stroke:#000000;stroke-miterlimit:10;" x1="1080" y1="877.004" x2="1080" y2="976.004"/>
	<line style="fill:none;stroke:#000000;stroke-miterlimit:10;" x1="981" y1="787.004" x2="981" y2="985.004"/>
	<line style="fill:none;stroke:#000000;stroke-miterlimit:10;" x1="925" y1="837.004" x2="981" y2="832.004"/>
	<line style="fill:none;stroke:#000000;stroke-miterlimit:10;" x1="801" y1="1030.004" x2="801" y2="922.004"/>
	<line style="fill:none;stroke:#000000;stroke-miterlimit:10;" x1="891" y1="976.004" x2="891" y2="931.004"/>
	<line style="fill:none;stroke:#000000;stroke-miterlimit:10;" x1="801" y1="886.004" x2="693" y2="886.004"/>
	<line style="fill:none;stroke:#000000;stroke-miterlimit:10;" x1="765" y1="949.004" x2="765" y2="886.004"/>
	<line style="fill:none;stroke:#000000;stroke-miterlimit:10;" x1="765" y1="922.004" x2="693" y2="922.004"/>
	<line style="fill:none;stroke:#000000;stroke-miterlimit:10;" x1="261" y1="985.004" x2="369" y2="985.004"/>
	<line style="fill:none;stroke:#000000;stroke-miterlimit:10;" x1="288" y1="1084.004" x2="405" y2="1084.004"/>
	<line style="fill:none;stroke:#000000;stroke-miterlimit:10;" x1="405" y1="1084.004" x2="405" y2="1192.004"/>
	<line style="fill:none;stroke:#000000;stroke-miterlimit:10;" x1="405" y1="1084.004" x2="495" y2="1084.004"/>
	<line style="fill:none;stroke:#000000;stroke-miterlimit:10;" x1="495" y1="1084.004" x2="495" y2="1192.004"/>
	<line style="fill:none;stroke:#000000;stroke-miterlimit:10;" x1="495" y1="1084.004" x2="495" y2="1021.004"/>
	<line style="fill:none;stroke:#000000;stroke-miterlimit:10;" x1="495" y1="1021.004" x2="549" y2="1021.004"/>
	<line style="fill:none;stroke:#000000;stroke-miterlimit:10;" x1="549" y1="1021.004" x2="549" y2="1057.004"/>
	<line style="fill:none;stroke:#000000;stroke-miterlimit:10;" x1="549" y1="1057.004" x2="549" y2="1075.004"/>
	<line style="fill:none;stroke:#000000;stroke-miterlimit:10;" x1="549" y1="1084.004" x2="585" y2="1084.004"/>
	<line style="fill:none;stroke:#000000;stroke-miterlimit:10;" x1="549" y1="1084.004" x2="549" y2="1075.004"/>
	<line style="fill:none;stroke:#000000;stroke-miterlimit:10;" x1="495" y1="985.004" x2="495" y2="1030.004"/>
	<line style="fill:none;stroke:#000000;stroke-miterlimit:10;" x1="27" y1="445.004" x2="198" y2="445.004"/>
	<line style="fill:none;stroke:#000000;stroke-miterlimit:10;" x1="198" y1="445.004" x2="198" y2="490.004"/>
	<line style="fill:none;stroke:#000000;stroke-miterlimit:10;" x1="198" y1="490.004" x2="162" y2="499.004"/>
	<line style="fill:none;stroke:#000000;stroke-miterlimit:10;" x1="117" y1="499.004" x2="117" y2="544.004"/>
	<line style="fill:none;stroke:#000000;stroke-miterlimit:10;" x1="117" y1="499.004" x2="162" y2="499.004"/>
	<line style="fill:none;stroke:#000000;stroke-miterlimit:10;" x1="117" y1="355.004" x2="117" y2="445.004"/>
	<line style="fill:none;stroke:#000000;stroke-miterlimit:10;" x1="117" y1="355.004" x2="27" y2="355.004"/>
	<line style="fill:none;stroke:#000000;stroke-miterlimit:10;" x1="36" y1="238.004" x2="36" y2="310.004"/>
	<line style="fill:none;stroke:#000000;stroke-miterlimit:10;" x1="36" y1="310.004" x2="0" y2="310.004"/>
	<line style="fill:none;stroke:#000000;stroke-miterlimit:10;" x1="135" y1="238.004" x2="135" y2="355.004"/>
	<line style="fill:none;stroke:#000000;stroke-miterlimit:10;" x1="135" y1="355.004" x2="108" y2="355.004"/>
	<line style="fill:none;stroke:#000000;stroke-miterlimit:10;" x1="234" y1="220.004" x2="234" y2="319.004"/>
	<line style="fill:none;stroke:#000000;stroke-miterlimit:10;" x1="333" y1="211.004" x2="333.125" y2="413.254"/>
	<line style="fill:none;stroke:#000000;stroke-miterlimit:10;" x1="237.5" y1="413.004" x2="198" y2="409.004"/>
	<line style="fill:none;stroke:#000000;stroke-miterlimit:10;" x1="333" y1="364.004" x2="396" y2="364.004"/>
	<line style="fill:none;stroke:#000000;stroke-miterlimit:10;" x1="423" y1="274.004" x2="423" y2="220.004"/>
	<line style="fill:none;stroke:#000000;stroke-miterlimit:10;" x1="513" y1="274.004" x2="513" y2="166.004"/>
	<line style="fill:none;stroke:#000000;stroke-miterlimit:10;" x1="513" y1="274.004" x2="612" y2="274.004"/>
	<line style="fill:none;stroke:#000000;stroke-miterlimit:10;" x1="621" y1="319.004" x2="522" y2="319.004"/>
	<line style="fill:none;stroke:#000000;stroke-miterlimit:10;" x1="549" y1="211.004" x2="549" y2="274.004"/>
	<line style="fill:none;stroke:#000000;stroke-miterlimit:10;" x1="549" y1="211.004" x2="612" y2="211.004"/>
	<line style="fill:none;stroke:#000000;stroke-miterlimit:10;" x1="405" y1="877.004" x2="459" y2="877.004"/>
</g>
<g id="Layer_1">
</g>
</svg>
