<?xml version="1.0" encoding="iso-8859-1"?>
<!-- Generator: Adobe Illustrator 16.0.3, SVG Export Plug-In . SVG Version: 6.00 Build 0)  -->
<!DOCTYPE svg PUBLIC "-//W3C//DTD SVG 1.1//EN" "http://www.w3.org/Graphics/SVG/1.1/DTD/svg11.dtd">
<svg version="1.1" xmlns="http://www.w3.org/2000/svg" xmlns:xlink="http://www.w3.org/1999/xlink" x="0px" y="0px" width="1063px"
	 height="973px" viewBox="0 0 1063 973" style="enable-background:new 0 0 1063 973;" xml:space="preserve">
<g id="porte">
	<line style="fill:none;stroke:#000000;stroke-miterlimit:10;" x1="702.5" y1="9.5" x2="702.5" y2="27.5"/>
	<line style="fill:none;stroke:#000000;stroke-miterlimit:10;" x1="720.5" y1="0.5" x2="738.5" y2="0.5"/>
	<line style="fill:none;stroke:#000000;stroke-miterlimit:10;" x1="792.5" y1="0.5" x2="819.5" y2="0.5"/>
	<line style="fill:none;stroke:#000000;stroke-miterlimit:10;" x1="756.5" y1="198.5" x2="783.5" y2="198.5"/>
	<line style="fill:none;stroke:#000000;stroke-miterlimit:10;" x1="882.5" y1="360.5" x2="882.5" y2="378.5"/>
	<line style="fill:none;stroke:#000000;stroke-miterlimit:10;" x1="855.5" y1="414.5" x2="873.5" y2="414.5"/>
	<line style="fill:none;stroke:#000000;stroke-miterlimit:10;" x1="909.5" y1="414.5" x2="927.5" y2="414.5"/>
	<line style="fill:none;stroke:#000000;stroke-miterlimit:10;" x1="864.5" y1="675.5" x2="864.5" y2="711.5"/>
	<line style="fill:none;stroke:#000000;stroke-miterlimit:10;" x1="1035.5" y1="585.5" x2="1062.5" y2="585.5"/>
	<line style="fill:none;stroke:#000000;stroke-miterlimit:10;" x1="999.5" y1="603.5" x2="999.5" y2="621.5"/>
	<line style="fill:none;stroke:#000000;stroke-miterlimit:10;" x1="1062.5" y1="648.5" x2="1062.5" y2="675.5"/>
	<line style="fill:none;stroke:#000000;stroke-miterlimit:10;" x1="1062.5" y1="729.5" x2="1062.5" y2="747.5"/>
	<line style="fill:none;stroke:#000000;stroke-miterlimit:10;" x1="648.5" y1="792.5" x2="648.5" y2="810.5"/>
	<line style="fill:none;stroke:#000000;stroke-miterlimit:10;" x1="297.5" y1="765.5" x2="324.5" y2="765.5"/>
	<line style="fill:none;stroke:#000000;stroke-miterlimit:10;" x1="378.5" y1="882.5" x2="378.5" y2="900.5"/>
	<line style="fill:none;stroke:#000000;stroke-miterlimit:10;" x1="342.5" y1="972.5" x2="360.5" y2="972.5"/>
	<line style="fill:none;stroke:#000000;stroke-miterlimit:10;" x1="261.5" y1="972.5" x2="279.5" y2="972.5"/>
	<line style="fill:none;stroke:#000000;stroke-miterlimit:10;" x1="27.5" y1="333.5" x2="45.5" y2="333.5"/>
	<line style="fill:none;stroke:#000000;stroke-miterlimit:10;" x1="0.5" y1="297.5" x2="0.5" y2="315.5"/>
	<line style="fill:none;stroke:#000000;stroke-miterlimit:10;" x1="18.5" y1="216.5" x2="18.5" y2="234.5"/>
	<line style="fill:none;stroke:#000000;stroke-miterlimit:10;" x1="216.5" y1="261.5" x2="216.5" y2="288.5"/>
	<line style="fill:none;stroke:#000000;stroke-miterlimit:10;" x1="234.5" y1="252.5" x2="261.5" y2="252.5"/>
</g>
<g id="Layer_1">
</g>
</svg>
