<?xml version="1.0" encoding="UTF-8" standalone="no"?>
<svg
   xmlns:dc="http://purl.org/dc/elements/1.1/"
   xmlns:cc="http://creativecommons.org/ns#"
   xmlns:rdf="http://www.w3.org/1999/02/22-rdf-syntax-ns#"
   xmlns:svg="http://www.w3.org/2000/svg"
   xmlns="http://www.w3.org/2000/svg"
   id="svg2"
   xml:space="preserve"
   style="enable-background:new 0 0 765 1044;"
   viewBox="0 0 765 1044"
   height="1044px"
   width="765px"
   y="0px"
   x="0px"
   version="1.1"><g
     id="windows"><line
       id="line5"
       y2="63"
       x2="405"
       y1="63"
       x1="378"
       style="fill:none;stroke:#FFF80B;stroke-miterlimit:10;" /><line
       id="line7"
       y2="63"
       x2="441"
       y1="63"
       x1="414"
       style="fill:none;stroke:#FFF80B;stroke-miterlimit:10;" /><line
       id="line9"
       y2="63"
       x2="351"
       y1="63"
       x1="324"
       style="fill:none;stroke:#FFF80B;stroke-miterlimit:10;" /><line
       id="line11"
       y2="63"
       x2="225"
       y1="63"
       x1="252"
       style="fill:none;stroke:#FFF80B;stroke-miterlimit:10;" /><line
       id="line13"
       y2="63"
       x2="288"
       y1="63"
       x1="261"
       style="fill:none;stroke:#FFF80B;stroke-miterlimit:10;" /><line
       id="line15"
       y2="72"
       x2="558"
       y1="45"
       x1="558"
       style="fill:none;stroke:#FFF80B;stroke-miterlimit:10;" /><line
       id="line17"
       y2="108"
       x2="117"
       y1="108"
       x1="144"
       style="fill:none;stroke:#FFF80B;stroke-miterlimit:10;" /><line
       id="line19"
       y2="108"
       x2="180"
       y1="108"
       x1="153"
       style="fill:none;stroke:#FFF80B;stroke-miterlimit:10;" /><line
       id="line21"
       y2="468"
       x2="378"
       y1="441"
       x1="378"
       style="fill:none;stroke:#FFF80B;stroke-miterlimit:10;" /><line
       id="line23"
       y2="486"
       x2="378"
       y1="513"
       x1="378"
       style="fill:none;stroke:#FFF80B;stroke-miterlimit:10;" /><line
       id="line25"
       y2="216"
       x2="675"
       y1="171"
       x1="675"
       style="fill:none;stroke:#FFF80B;stroke-miterlimit:10;" /><line
       id="line27"
       y2="279"
       x2="720"
       y1="306"
       x1="720"
       style="fill:none;stroke:#FFF80B;stroke-miterlimit:10;" /><line
       id="line29"
       y2="243"
       x2="720"
       y1="270"
       x1="720"
       style="fill:none;stroke:#FFF80B;stroke-miterlimit:10;" /><line
       id="line31"
       y2="387"
       x2="756"
       y1="414"
       x1="756"
       style="fill:none;stroke:#FFF80B;stroke-miterlimit:10;" /><line
       id="line33"
       y2="351"
       x2="756"
       y1="378"
       x1="756"
       style="fill:none;stroke:#FFF80B;stroke-miterlimit:10;" /><line
       id="line35"
       y2="432"
       x2="630"
       y1="432"
       x1="657"
       style="fill:none;stroke:#FFF80B;stroke-miterlimit:10;" /><line
       id="line37"
       y2="432"
       x2="594"
       y1="432"
       x1="621"
       style="fill:none;stroke:#FFF80B;stroke-miterlimit:10;" /><line
       id="line39"
       y2="981"
       x2="405"
       y1="981"
       x1="378"
       style="fill:none;stroke:#FFF80B;stroke-miterlimit:10;" /><line
       id="line41"
       y2="981"
       x2="441"
       y1="981"
       x1="414"
       style="fill:none;stroke:#FFF80B;stroke-miterlimit:10;" /><line
       id="line43"
       y2="981"
       x2="351"
       y1="981"
       x1="324"
       style="fill:none;stroke:#FFF80B;stroke-miterlimit:10;" /><line
       id="line45"
       y2="981"
       x2="225"
       y1="981"
       x1="252"
       style="fill:none;stroke:#FFF80B;stroke-miterlimit:10;" /><line
       id="line47"
       y2="981"
       x2="288"
       y1="981"
       x1="261"
       style="fill:none;stroke:#FFF80B;stroke-miterlimit:10;" /><line
       id="line49"
       y2="972"
       x2="558"
       y1="999"
       x1="558"
       style="fill:none;stroke:#FFF80B;stroke-miterlimit:10;" /><line
       id="line51"
       y2="936"
       x2="117"
       y1="936"
       x1="144"
       style="fill:none;stroke:#FFF80B;stroke-miterlimit:10;" /><line
       id="line53"
       y2="936"
       x2="180"
       y1="936"
       x1="153"
       style="fill:none;stroke:#FFF80B;stroke-miterlimit:10;" /><line
       id="line55"
       y2="576"
       x2="378"
       y1="603"
       x1="378"
       style="fill:none;stroke:#FFF80B;stroke-miterlimit:10;" /><line
       id="line57"
       y2="558"
       x2="378"
       y1="531"
       x1="378"
       style="fill:none;stroke:#FFF80B;stroke-miterlimit:10;" /><line
       id="line59"
       y2="828"
       x2="675"
       y1="873"
       x1="675"
       style="fill:none;stroke:#FFF80B;stroke-miterlimit:10;" /><line
       id="line61"
       y2="765"
       x2="720"
       y1="738"
       x1="720"
       style="fill:none;stroke:#FFF80B;stroke-miterlimit:10;" /><line
       id="line63"
       y2="801"
       x2="720"
       y1="774"
       x1="720"
       style="fill:none;stroke:#FFF80B;stroke-miterlimit:10;" /><line
       id="line65"
       y2="657"
       x2="756"
       y1="630"
       x1="756"
       style="fill:none;stroke:#FFF80B;stroke-miterlimit:10;" /><line
       id="line67"
       y2="693"
       x2="756"
       y1="666"
       x1="756"
       style="fill:none;stroke:#FFF80B;stroke-miterlimit:10;" /><line
       id="line69"
       y2="612"
       x2="630"
       y1="612"
       x1="657"
       style="fill:none;stroke:#FFF80B;stroke-miterlimit:10;" /><line
       id="line71"
       y2="612"
       x2="594"
       y1="612"
       x1="621"
       style="fill:none;stroke:#FFF80B;stroke-miterlimit:10;" /><line
       id="line73"
       y2="306"
       x2="36"
       y1="279"
       x1="36"
       style="fill:none;stroke:#FFF80B;stroke-miterlimit:10;" /><line
       id="line75"
       y2="243"
       x2="36"
       y1="270"
       x1="36"
       style="fill:none;stroke:#FFF80B;stroke-miterlimit:10;" /><line
       id="line77"
       y2="342"
       x2="144"
       y1="342"
       x1="117"
       style="fill:none;stroke:#FFF80B;stroke-miterlimit:10;" /><line
       id="line79"
       y2="342"
       x2="81"
       y1="342"
       x1="108"
       style="fill:none;stroke:#FFF80B;stroke-miterlimit:10;" /><line
       id="line81"
       y2="351"
       x2="315"
       y1="351"
       x1="288"
       style="fill:none;stroke:#FFF80B;stroke-miterlimit:10;" /><line
       id="line83"
       y2="351"
       x2="252"
       y1="351"
       x1="279"
       style="fill:none;stroke:#FFF80B;stroke-miterlimit:10;" /><line
       id="line85"
       y2="981"
       x2="405"
       y1="981"
       x1="378"
       style="fill:none;stroke:#FFF80B;stroke-miterlimit:10;" /><line
       id="line87"
       y2="981"
       x2="441"
       y1="981"
       x1="414"
       style="fill:none;stroke:#FFF80B;stroke-miterlimit:10;" /><line
       id="line89"
       y2="981"
       x2="351"
       y1="981"
       x1="324"
       style="fill:none;stroke:#FFF80B;stroke-miterlimit:10;" /><line
       id="line91"
       y2="981"
       x2="225"
       y1="981"
       x1="252"
       style="fill:none;stroke:#FFF80B;stroke-miterlimit:10;" /><line
       id="line93"
       y2="981"
       x2="288"
       y1="981"
       x1="261"
       style="fill:none;stroke:#FFF80B;stroke-miterlimit:10;" /><line
       id="line95"
       y2="972"
       x2="558"
       y1="999"
       x1="558"
       style="fill:none;stroke:#FFF80B;stroke-miterlimit:10;" /><line
       id="line97"
       y2="936"
       x2="117"
       y1="936"
       x1="144"
       style="fill:none;stroke:#FFF80B;stroke-miterlimit:10;" /><line
       id="line99"
       y2="936"
       x2="180"
       y1="936"
       x1="153"
       style="fill:none;stroke:#FFF80B;stroke-miterlimit:10;" /><line
       id="line101"
       y2="576"
       x2="378"
       y1="603"
       x1="378"
       style="fill:none;stroke:#FFF80B;stroke-miterlimit:10;" /><line
       id="line103"
       y2="558"
       x2="378"
       y1="531"
       x1="378"
       style="fill:none;stroke:#FFF80B;stroke-miterlimit:10;" /><line
       id="line105"
       y2="828"
       x2="675"
       y1="873"
       x1="675"
       style="fill:none;stroke:#FFF80B;stroke-miterlimit:10;" /><line
       id="line107"
       y2="765"
       x2="720"
       y1="738"
       x1="720"
       style="fill:none;stroke:#FFF80B;stroke-miterlimit:10;" /><line
       id="line109"
       y2="801"
       x2="720"
       y1="774"
       x1="720"
       style="fill:none;stroke:#FFF80B;stroke-miterlimit:10;" /><line
       id="line111"
       y2="657"
       x2="756"
       y1="630"
       x1="756"
       style="fill:none;stroke:#FFF80B;stroke-miterlimit:10;" /><line
       id="line113"
       y2="693"
       x2="756"
       y1="666"
       x1="756"
       style="fill:none;stroke:#FFF80B;stroke-miterlimit:10;" /><line
       id="line115"
       y2="612"
       x2="630"
       y1="612"
       x1="657"
       style="fill:none;stroke:#FFF80B;stroke-miterlimit:10;" /><line
       id="line117"
       y2="612"
       x2="594"
       y1="612"
       x1="621"
       style="fill:none;stroke:#FFF80B;stroke-miterlimit:10;" /><line
       id="line119"
       y2="738"
       x2="36"
       y1="765"
       x1="36"
       style="fill:none;stroke:#FFF80B;stroke-miterlimit:10;" /><line
       id="line121"
       y2="801"
       x2="36"
       y1="774"
       x1="36"
       style="fill:none;stroke:#FFF80B;stroke-miterlimit:10;" /><line
       id="line123"
       y2="702"
       x2="144"
       y1="702"
       x1="117"
       style="fill:none;stroke:#FFF80B;stroke-miterlimit:10;" /><line
       id="line125"
       y2="702"
       x2="81"
       y1="702"
       x1="108"
       style="fill:none;stroke:#FFF80B;stroke-miterlimit:10;" /><line
       id="line127"
       y2="693"
       x2="315"
       y1="693"
       x1="288"
       style="fill:none;stroke:#FFF80B;stroke-miterlimit:10;" /><line
       id="line129"
       y2="693"
       x2="252"
       y1="693"
       x1="279"
       style="fill:none;stroke:#FFF80B;stroke-miterlimit:10;" /></g><g
     id="Layer_1" /></svg>